<svg width="15" height="16" viewBox="0 0 15 16" fill="none" xmlns="http://www.w3.org/2000/svg">
<path d="M8.64393 7.64063L14.7963 0.307031C14.8994 0.185156 14.8127 0 14.6533 0H12.783C12.6728 0 12.5674 0.0492187 12.4947 0.133594L7.42049 6.18281L2.34628 0.133594C2.27597 0.0492187 2.1705 0 2.058 0H0.187688C0.0283129 0 -0.058406 0.185156 0.0447189 0.307031L6.19706 7.64063L0.0447189 14.9742C0.021618 15.0014 0.00679789 15.0346 0.0020175 15.0699C-0.00276288 15.1053 0.00269726 15.1413 0.0177503 15.1736C0.0328032 15.2059 0.0568168 15.2332 0.0869394 15.2523C0.117062 15.2714 0.152028 15.2814 0.187688 15.2813H2.058C2.16815 15.2813 2.27362 15.232 2.34628 15.1477L7.42049 9.09844L12.4947 15.1477C12.565 15.232 12.6705 15.2813 12.783 15.2813H14.6533C14.8127 15.2813 14.8994 15.0961 14.7963 14.9742L8.64393 7.64063Z" fill="black"/>
</svg>
