<svg width="27" height="23" viewBox="0 0 27 23" fill="none" xmlns="http://www.w3.org/2000/svg">
<path d="M25.3333 0H1.33333C0.979711 0 0.640573 0.140476 0.390524 0.390525C0.140476 0.640573 0 0.979711 0 1.33333V20C0 20.7072 0.280951 21.3855 0.781048 21.8856C1.28115 22.3857 1.95942 22.6667 2.66667 22.6667H24C24.7072 22.6667 25.3855 22.3857 25.8856 21.8856C26.3857 21.3855 26.6667 20.7072 26.6667 20V1.33333C26.6667 0.979711 26.5262 0.640573 26.2761 0.390525C26.0261 0.140476 25.687 0 25.3333 0ZM13.3333 12C8.92133 12 5.33333 8.412 5.33333 4H8C8 6.94133 10.392 9.33333 13.3333 9.33333C16.2747 9.33333 18.6667 6.94133 18.6667 4H21.3333C21.3333 8.412 17.7453 12 13.3333 12Z" fill="black"/>
</svg>
