<svg width="16" height="16" viewBox="0 0 16 16" fill="none" xmlns="http://www.w3.org/2000/svg">
<path fill-rule="evenodd" clip-rule="evenodd" d="M2.86465 14.3511C2.78665 14.7951 3.22465 15.1421 3.61065 14.9441L8.00065 12.6881L12.3897 14.9441C12.7757 15.1421 13.2137 14.7951 13.1357 14.3521L12.3057 9.62214L15.8287 6.26614C16.1577 5.95214 15.9867 5.37814 15.5457 5.31614L10.6477 4.62014L8.46365 0.293144C8.42205 0.205433 8.35641 0.131327 8.27436 0.0794362C8.19232 0.0275455 8.09723 0 8.00015 0C7.90308 0 7.80799 0.0275455 7.72594 0.0794362C7.6439 0.131327 7.57826 0.205433 7.53665 0.293144L5.35265 4.62114L0.454653 5.31714C0.0136534 5.37914 -0.157347 5.95314 0.171653 6.26714L3.69465 9.62314L2.86465 14.3531V14.3511ZM7.76965 11.5841L4.08365 13.4781L4.77765 9.52114C4.79391 9.43006 4.78755 9.33637 4.75913 9.24832C4.73071 9.16026 4.6811 9.08054 4.61465 9.01614L1.70865 6.24614L5.76065 5.67014C5.84456 5.65747 5.92414 5.62465 5.99259 5.5745C6.06103 5.52434 6.1163 5.45834 6.15365 5.38214L8.00065 1.72414L9.84665 5.38214C9.88401 5.45834 9.93928 5.52434 10.0077 5.5745C10.0762 5.62465 10.1557 5.65747 10.2397 5.67014L14.2917 6.24514L11.3857 9.01514C11.319 9.07959 11.2692 9.15948 11.2408 9.24773C11.2124 9.33599 11.2061 9.4299 11.2227 9.52114L11.9167 13.4781L8.23065 11.5841C8.15938 11.5474 8.08035 11.5282 8.00015 11.5282C7.91996 11.5282 7.84093 11.5474 7.76965 11.5841Z" fill="black"/>
</svg>
